<mxfile host="app.diagrams.net" modified="2021-04-06T04:36:00.043Z" agent="5.0 (Windows NT 10.0; Win64; x64) AppleWebKit/537.36 (KHTML, like Gecko) Chrome/89.0.4389.114 Safari/537.36" etag="Ta-4roQf-2RrppTxhOFu" version="14.1.8" type="github">
  <diagram id="xb-rynGH5lXCCxChHvjF" name="Page-1">
    <mxGraphModel dx="1117" dy="644" grid="1" gridSize="10" guides="1" tooltips="1" connect="1" arrows="1" fold="1" page="1" pageScale="1" pageWidth="1169" pageHeight="827" math="0" shadow="0">
      <root>
        <mxCell id="0" />
        <mxCell id="1" parent="0" />
        <mxCell id="MVcPuwvgO2qr8lrk7stS-1" value="Hardware &lt;br style=&quot;font-size: 15px;&quot;&gt;Breakpoint" style="rounded=1;whiteSpace=wrap;html=1;fillColor=#d5e8d4;strokeColor=#82b366;fontSize=15;" vertex="1" parent="1">
          <mxGeometry x="40" y="20" width="120" height="60" as="geometry" />
        </mxCell>
        <mxCell id="MVcPuwvgO2qr8lrk7stS-2" value="Exception Handler&lt;br style=&quot;font-size: 14px;&quot;&gt;（Debug Monitor）" style="rounded=1;whiteSpace=wrap;html=1;fillColor=#f5f5f5;strokeColor=#666666;fontColor=#333333;fontSize=14;" vertex="1" parent="1">
          <mxGeometry x="255" y="20" width="125" height="60" as="geometry" />
        </mxCell>
        <mxCell id="MVcPuwvgO2qr8lrk7stS-3" value="&lt;font style=&quot;font-size: 13px&quot;&gt;Gen &lt;br&gt;Exception&lt;/font&gt;" style="endArrow=classic;html=1;exitX=1;exitY=0.5;exitDx=0;exitDy=0;entryX=0;entryY=0.5;entryDx=0;entryDy=0;" edge="1" parent="1" source="MVcPuwvgO2qr8lrk7stS-1" target="MVcPuwvgO2qr8lrk7stS-2">
          <mxGeometry width="50" height="50" relative="1" as="geometry">
            <mxPoint x="350" y="50" as="sourcePoint" />
            <mxPoint x="400" as="targetPoint" />
          </mxGeometry>
        </mxCell>
        <mxCell id="MVcPuwvgO2qr8lrk7stS-4" value="&lt;font style=&quot;font-size: 13px&quot;&gt;Load &lt;br&gt;PatchCode&lt;/font&gt;" style="endArrow=classic;html=1;exitX=1;exitY=0.5;exitDx=0;exitDy=0;" edge="1" parent="1" source="MVcPuwvgO2qr8lrk7stS-2" target="MVcPuwvgO2qr8lrk7stS-5">
          <mxGeometry width="50" height="50" relative="1" as="geometry">
            <mxPoint x="400" y="50" as="sourcePoint" />
            <mxPoint x="520" y="50" as="targetPoint" />
          </mxGeometry>
        </mxCell>
        <mxCell id="MVcPuwvgO2qr8lrk7stS-5" value="eBPF VM" style="rounded=1;whiteSpace=wrap;html=1;fillColor=#dae8fc;strokeColor=#6c8ebf;fontSize=14;" vertex="1" parent="1">
          <mxGeometry x="470" y="20" width="120" height="60" as="geometry" />
        </mxCell>
        <mxCell id="MVcPuwvgO2qr8lrk7stS-6" value="FPB&lt;br style=&quot;font-size: 14px;&quot;&gt;(Flash Patch)" style="rounded=1;whiteSpace=wrap;html=1;fillColor=#d5e8d4;strokeColor=#82b366;fontSize=14;" vertex="1" parent="1">
          <mxGeometry x="40" y="110" width="120" height="60" as="geometry" />
        </mxCell>
        <mxCell id="MVcPuwvgO2qr8lrk7stS-7" value="Remap Table&lt;br style=&quot;font-size: 14px;&quot;&gt;（Instruction replace）" style="rounded=1;whiteSpace=wrap;html=1;fillColor=#fff2cc;strokeColor=#d6b656;fontSize=14;" vertex="1" parent="1">
          <mxGeometry x="245" y="110" width="150" height="60" as="geometry" />
        </mxCell>
        <mxCell id="MVcPuwvgO2qr8lrk7stS-13" value="" style="edgeStyle=orthogonalEdgeStyle;rounded=0;orthogonalLoop=1;jettySize=auto;html=1;" edge="1" parent="1" source="MVcPuwvgO2qr8lrk7stS-8" target="MVcPuwvgO2qr8lrk7stS-12">
          <mxGeometry relative="1" as="geometry" />
        </mxCell>
        <mxCell id="MVcPuwvgO2qr8lrk7stS-8" value="Handler Function" style="rounded=1;whiteSpace=wrap;html=1;fillColor=#e1d5e7;strokeColor=#9673a6;fontSize=14;" vertex="1" parent="1">
          <mxGeometry x="260" y="190" width="120" height="60" as="geometry" />
        </mxCell>
        <mxCell id="MVcPuwvgO2qr8lrk7stS-9" value="&lt;font style=&quot;font-size: 13px&quot;&gt;Address&lt;br&gt;Remap&lt;/font&gt;" style="endArrow=classic;html=1;exitX=1;exitY=0.5;exitDx=0;exitDy=0;entryX=0;entryY=0.5;entryDx=0;entryDy=0;" edge="1" parent="1" source="MVcPuwvgO2qr8lrk7stS-6" target="MVcPuwvgO2qr8lrk7stS-7">
          <mxGeometry width="50" height="50" relative="1" as="geometry">
            <mxPoint x="350" y="40" as="sourcePoint" />
            <mxPoint x="400" y="-10" as="targetPoint" />
            <Array as="points">
              <mxPoint x="220" y="140" />
            </Array>
          </mxGeometry>
        </mxCell>
        <mxCell id="MVcPuwvgO2qr8lrk7stS-10" value="&lt;font style=&quot;font-size: 13px&quot;&gt;Invoke&lt;/font&gt;" style="endArrow=classic;html=1;exitX=1;exitY=0.5;exitDx=0;exitDy=0;entryX=0;entryY=0.5;entryDx=0;entryDy=0;" edge="1" parent="1" target="MVcPuwvgO2qr8lrk7stS-8">
          <mxGeometry width="50" height="50" relative="1" as="geometry">
            <mxPoint x="160" y="220" as="sourcePoint" />
            <mxPoint x="150" y="60" as="targetPoint" />
          </mxGeometry>
        </mxCell>
        <mxCell id="MVcPuwvgO2qr8lrk7stS-11" value="&lt;font style=&quot;font-size: 13px&quot;&gt;Load &lt;br&gt;PatchCode&lt;/font&gt;" style="endArrow=classic;html=1;exitX=1;exitY=0.5;exitDx=0;exitDy=0;" edge="1" parent="1" target="MVcPuwvgO2qr8lrk7stS-12">
          <mxGeometry width="50" height="50" relative="1" as="geometry">
            <mxPoint x="380" y="220" as="sourcePoint" />
            <mxPoint x="505" y="220" as="targetPoint" />
          </mxGeometry>
        </mxCell>
        <mxCell id="MVcPuwvgO2qr8lrk7stS-12" value="eBPF VM" style="rounded=1;whiteSpace=wrap;html=1;fillColor=#dae8fc;strokeColor=#6c8ebf;fontSize=14;" vertex="1" parent="1">
          <mxGeometry x="470" y="190" width="120" height="60" as="geometry" />
        </mxCell>
        <mxCell id="MVcPuwvgO2qr8lrk7stS-14" value="Software &lt;br style=&quot;font-size: 14px;&quot;&gt;Hook Point" style="rounded=1;whiteSpace=wrap;html=1;fillColor=#d5e8d4;strokeColor=#82b366;fontSize=14;" vertex="1" parent="1">
          <mxGeometry x="40" y="190" width="120" height="60" as="geometry" />
        </mxCell>
        <mxCell id="MVcPuwvgO2qr8lrk7stS-15" value="" style="edgeStyle=orthogonalEdgeStyle;rounded=0;orthogonalLoop=1;jettySize=auto;html=1;" edge="1" parent="1" source="MVcPuwvgO2qr8lrk7stS-16" target="MVcPuwvgO2qr8lrk7stS-19">
          <mxGeometry relative="1" as="geometry" />
        </mxCell>
        <mxCell id="MVcPuwvgO2qr8lrk7stS-16" value="Handler Function" style="rounded=1;whiteSpace=wrap;html=1;fillColor=#e1d5e7;strokeColor=#9673a6;fontSize=14;" vertex="1" parent="1">
          <mxGeometry x="470" y="110" width="120" height="60" as="geometry" />
        </mxCell>
        <mxCell id="MVcPuwvgO2qr8lrk7stS-17" value="&lt;font style=&quot;font-size: 13px&quot;&gt;Jump&lt;/font&gt;" style="endArrow=classic;html=1;exitX=1;exitY=0.5;exitDx=0;exitDy=0;entryX=0;entryY=0.5;entryDx=0;entryDy=0;" edge="1" parent="1" target="MVcPuwvgO2qr8lrk7stS-16">
          <mxGeometry width="50" height="50" relative="1" as="geometry">
            <mxPoint x="400" y="140" as="sourcePoint" />
            <mxPoint x="390" y="-20" as="targetPoint" />
            <Array as="points">
              <mxPoint x="430" y="140" />
            </Array>
          </mxGeometry>
        </mxCell>
        <mxCell id="MVcPuwvgO2qr8lrk7stS-18" value="&lt;font style=&quot;font-size: 13px&quot;&gt;Load &lt;br&gt;PatchCode&lt;/font&gt;" style="endArrow=classic;html=1;exitX=1;exitY=0.5;exitDx=0;exitDy=0;" edge="1" parent="1" target="MVcPuwvgO2qr8lrk7stS-19">
          <mxGeometry x="-0.4286" width="50" height="50" relative="1" as="geometry">
            <mxPoint x="620" y="140" as="sourcePoint" />
            <mxPoint x="745" y="140" as="targetPoint" />
            <Array as="points">
              <mxPoint x="630" y="140" />
            </Array>
            <mxPoint as="offset" />
          </mxGeometry>
        </mxCell>
        <mxCell id="MVcPuwvgO2qr8lrk7stS-19" value="eBPF VM" style="rounded=1;whiteSpace=wrap;html=1;fillColor=#dae8fc;strokeColor=#6c8ebf;fontSize=14;" vertex="1" parent="1">
          <mxGeometry x="690" y="110" width="120" height="60" as="geometry" />
        </mxCell>
        <mxCell id="MVcPuwvgO2qr8lrk7stS-51" value="" style="group" vertex="1" connectable="0" parent="1">
          <mxGeometry x="20" y="1470" width="810" height="270" as="geometry" />
        </mxCell>
        <mxCell id="MVcPuwvgO2qr8lrk7stS-22" value="User" style="swimlane;labelBackgroundColor=none;fontFamily=Times New Roman;fontSize=14;fillColor=#dae8fc;strokeColor=#6c8ebf;rounded=1;sketch=0;shadow=0;glass=0;swimlaneLine=1;rotation=0;" vertex="1" parent="MVcPuwvgO2qr8lrk7stS-51">
          <mxGeometry x="559.40625" y="72.56250000000001" width="250.59375000000003" height="180.00000000000003" as="geometry" />
        </mxCell>
        <mxCell id="MVcPuwvgO2qr8lrk7stS-23" value="Write eBPF Patch Code" style="rounded=1;whiteSpace=wrap;html=1;labelBackgroundColor=none;fillColor=none;fontFamily=Times New Roman;fontSize=14;rotation=0;" vertex="1" parent="MVcPuwvgO2qr8lrk7stS-22">
          <mxGeometry x="162.06328125000002" y="33.75" width="75.9375" height="49.090909090909086" as="geometry" />
        </mxCell>
        <mxCell id="MVcPuwvgO2qr8lrk7stS-26" value="&lt;font face=&quot;Times New Roman&quot; style=&quot;font-size: 14px;&quot;&gt;eBPF Byte Code&lt;/font&gt;" style="rounded=1;whiteSpace=wrap;html=1;fontSize=14;rotation=0;" vertex="1" parent="MVcPuwvgO2qr8lrk7stS-22">
          <mxGeometry x="162.06328125000002" y="112.21875" width="75.9375" height="49.090909090909086" as="geometry" />
        </mxCell>
        <mxCell id="MVcPuwvgO2qr8lrk7stS-25" value="Compile" style="endArrow=classic;html=1;fontFamily=Times New Roman;fontSize=14;exitX=0.5;exitY=1;exitDx=0;exitDy=0;" edge="1" parent="MVcPuwvgO2qr8lrk7stS-22" source="MVcPuwvgO2qr8lrk7stS-23" target="MVcPuwvgO2qr8lrk7stS-26">
          <mxGeometry width="50" height="50" relative="1" as="geometry">
            <mxPoint x="200.728125" y="136.6875" as="sourcePoint" />
            <mxPoint x="208.9546875" y="113.06250000000001" as="targetPoint" />
          </mxGeometry>
        </mxCell>
        <mxCell id="MVcPuwvgO2qr8lrk7stS-27" value="Safe eBPF Byte Code" style="rounded=1;whiteSpace=wrap;html=1;labelBackgroundColor=none;fillColor=none;fontFamily=Times New Roman;fontSize=14;rotation=0;" vertex="1" parent="MVcPuwvgO2qr8lrk7stS-22">
          <mxGeometry x="12.33984375" y="112.21875" width="91.12500000000001" height="49.090909090909086" as="geometry" />
        </mxCell>
        <mxCell id="MVcPuwvgO2qr8lrk7stS-28" value="Verify" style="endArrow=classic;html=1;fontFamily=Times New Roman;fontSize=14;exitX=0;exitY=0.5;exitDx=0;exitDy=0;exitPerimeter=0;" edge="1" parent="MVcPuwvgO2qr8lrk7stS-22" source="MVcPuwvgO2qr8lrk7stS-26" target="MVcPuwvgO2qr8lrk7stS-27">
          <mxGeometry width="50" height="50" relative="1" as="geometry">
            <mxPoint x="407.21484375000006" y="66.65625" as="sourcePoint" />
            <mxPoint x="446.70234375" y="27" as="targetPoint" />
          </mxGeometry>
        </mxCell>
        <mxCell id="MVcPuwvgO2qr8lrk7stS-29" value="Get Vulnerability Report" style="rounded=1;whiteSpace=wrap;html=1;labelBackgroundColor=none;fillColor=none;fontFamily=Times New Roman;fontSize=14;rotation=0;" vertex="1" parent="MVcPuwvgO2qr8lrk7stS-22">
          <mxGeometry x="12.33984375" y="34.59375" width="91.12500000000001" height="49.090909090909086" as="geometry" />
        </mxCell>
        <mxCell id="MVcPuwvgO2qr8lrk7stS-30" value="" style="endArrow=classic;html=1;fontFamily=Times New Roman;fontSize=14;exitX=1;exitY=0.5;exitDx=0;exitDy=0;entryX=0;entryY=0.5;entryDx=0;entryDy=0;" edge="1" parent="MVcPuwvgO2qr8lrk7stS-22" source="MVcPuwvgO2qr8lrk7stS-29" target="MVcPuwvgO2qr8lrk7stS-23">
          <mxGeometry width="50" height="50" relative="1" as="geometry">
            <mxPoint x="120.93046875000002" y="105.46875" as="sourcePoint" />
            <mxPoint x="161.24062500000002" y="66.65625" as="targetPoint" />
          </mxGeometry>
        </mxCell>
        <mxCell id="MVcPuwvgO2qr8lrk7stS-32" value="encrypted&lt;br style=&quot;font-size: 14px;&quot;&gt;Transfer" style="shape=flexArrow;endArrow=classic;html=1;fontFamily=Times New Roman;fontSize=14;exitX=0;exitY=0.5;exitDx=0;exitDy=0;fillColor=#b0e3e6;strokeColor=#0e8088;entryX=1;entryY=0.5;entryDx=0;entryDy=0;" edge="1" parent="MVcPuwvgO2qr8lrk7stS-51" source="MVcPuwvgO2qr8lrk7stS-27" target="MVcPuwvgO2qr8lrk7stS-40">
          <mxGeometry width="41.13281249999999" height="42.1875" as="geometry">
            <mxPoint x="483.72187499999995" y="194.0625" as="sourcePoint" />
            <mxPoint x="434.3625" y="162.84375" as="targetPoint" />
            <mxPoint x="9" as="offset" />
          </mxGeometry>
        </mxCell>
        <mxCell id="MVcPuwvgO2qr8lrk7stS-33" value="Device" style="swimlane;labelBackgroundColor=none;fillColor=#f8cecc;fontFamily=Times New Roman;fontSize=14;rounded=1;strokeColor=#b85450;rotation=0;" vertex="1" parent="MVcPuwvgO2qr8lrk7stS-51">
          <mxGeometry width="480" height="270" as="geometry" />
        </mxCell>
        <mxCell id="MVcPuwvgO2qr8lrk7stS-43" value="Patch Workflow" style="swimlane;rounded=1;shadow=0;glass=0;labelBackgroundColor=none;sketch=0;fillColor=none;fontFamily=Times New Roman;fontSize=14;rotation=0;" vertex="1" parent="MVcPuwvgO2qr8lrk7stS-33">
          <mxGeometry x="20.566406249999996" y="39.681562500000005" width="312.8473125" height="212.72727272727272" as="geometry" />
        </mxCell>
        <mxCell id="MVcPuwvgO2qr8lrk7stS-40" value="Authenticate Patch" style="rounded=1;whiteSpace=wrap;html=1;shadow=0;glass=0;labelBackgroundColor=none;sketch=0;fillColor=none;fontFamily=Times New Roman;fontSize=14;rotation=0;" vertex="1" parent="MVcPuwvgO2qr8lrk7stS-33">
          <mxGeometry x="358.99671874999996" y="184.78125" width="91.125" height="49.090909090909086" as="geometry" />
        </mxCell>
        <mxCell id="MVcPuwvgO2qr8lrk7stS-41" value="Install Patch" style="rounded=1;whiteSpace=wrap;html=1;shadow=0;glass=0;labelBackgroundColor=none;sketch=0;fillColor=none;fontFamily=Times New Roman;fontSize=14;rotation=0;" vertex="1" parent="MVcPuwvgO2qr8lrk7stS-33">
          <mxGeometry x="358.99671874999996" y="121.5" width="91.125" height="49.090909090909086" as="geometry" />
        </mxCell>
        <mxCell id="MVcPuwvgO2qr8lrk7stS-42" value="" style="endArrow=classic;html=1;fontFamily=Times New Roman;fontSize=14;exitX=0.5;exitY=0;exitDx=0;exitDy=0;entryX=0.5;entryY=1;entryDx=0;entryDy=0;" edge="1" parent="MVcPuwvgO2qr8lrk7stS-33" source="MVcPuwvgO2qr8lrk7stS-40" target="MVcPuwvgO2qr8lrk7stS-41">
          <mxGeometry width="50" height="50" relative="1" as="geometry">
            <mxPoint x="468.41" y="216.84375" as="sourcePoint" />
            <mxPoint x="507.8975" y="178.03125" as="targetPoint" />
          </mxGeometry>
        </mxCell>
        <mxCell id="MVcPuwvgO2qr8lrk7stS-45" value="" style="endArrow=classic;html=1;fontFamily=Times New Roman;fontSize=14;exitX=0;exitY=0.5;exitDx=0;exitDy=0;entryX=1;entryY=0.5;entryDx=0;entryDy=0;" edge="1" parent="MVcPuwvgO2qr8lrk7stS-33" source="MVcPuwvgO2qr8lrk7stS-41" target="MVcPuwvgO2qr8lrk7stS-43">
          <mxGeometry width="50" height="50" relative="1" as="geometry">
            <mxPoint x="347.1609375" y="115.59375" as="sourcePoint" />
            <mxPoint x="335.64375" y="144.28125" as="targetPoint" />
          </mxGeometry>
        </mxCell>
        <mxCell id="MVcPuwvgO2qr8lrk7stS-62" value="&lt;font style=&quot;font-size: 16px;&quot;&gt;Invoke&lt;/font&gt;" style="endArrow=classic;html=1;exitX=1;exitY=0.5;exitDx=0;exitDy=0;entryX=0;entryY=0.5;entryDx=0;entryDy=0;fontFamily=Times New Roman;fontSize=16;" edge="1" parent="1" target="MVcPuwvgO2qr8lrk7stS-60">
          <mxGeometry width="50" height="50" relative="1" as="geometry">
            <mxPoint x="160" y="500" as="sourcePoint" />
            <mxPoint x="150" y="340" as="targetPoint" />
          </mxGeometry>
        </mxCell>
        <mxCell id="MVcPuwvgO2qr8lrk7stS-65" value="Software &lt;br style=&quot;font-size: 16px;&quot;&gt;Hook Point" style="rounded=1;whiteSpace=wrap;html=1;fillColor=#d5e8d4;strokeColor=#82b366;fontSize=16;fontFamily=Times New Roman;" vertex="1" parent="1">
          <mxGeometry x="40" y="470" width="120" height="60" as="geometry" />
        </mxCell>
        <mxCell id="MVcPuwvgO2qr8lrk7stS-72" value="Patch Trigger" style="swimlane;rounded=1;shadow=0;glass=0;labelBackgroundColor=none;sketch=0;fillColor=#fad9d5;fontFamily=Times New Roman;fontSize=16;startSize=23;strokeColor=#ae4132;" vertex="1" parent="1">
          <mxGeometry x="10" y="280" width="550" height="270" as="geometry" />
        </mxCell>
        <mxCell id="MVcPuwvgO2qr8lrk7stS-60" value="Handler &lt;br style=&quot;font-size: 16px;&quot;&gt;Function" style="rounded=1;whiteSpace=wrap;html=1;fillColor=#e1d5e7;strokeColor=#9673a6;fontSize=16;fontFamily=Times New Roman;" vertex="1" parent="MVcPuwvgO2qr8lrk7stS-72">
          <mxGeometry x="257.5" y="190" width="100" height="60" as="geometry" />
        </mxCell>
        <mxCell id="MVcPuwvgO2qr8lrk7stS-57" value="FPB&lt;br style=&quot;font-size: 16px;&quot;&gt;(Flash Patch)" style="rounded=1;whiteSpace=wrap;html=1;fillColor=#d5e8d4;strokeColor=#82b366;fontSize=16;fontFamily=Times New Roman;" vertex="1" parent="MVcPuwvgO2qr8lrk7stS-72">
          <mxGeometry x="30" y="114" width="120" height="60" as="geometry" />
        </mxCell>
        <mxCell id="MVcPuwvgO2qr8lrk7stS-58" value="Remap Table&lt;br style=&quot;font-size: 16px;&quot;&gt;（Instruction replace）" style="rounded=1;whiteSpace=wrap;html=1;fillColor=#fff2cc;strokeColor=#d6b656;fontSize=16;fontFamily=Times New Roman;" vertex="1" parent="MVcPuwvgO2qr8lrk7stS-72">
          <mxGeometry x="235" y="114" width="150" height="60" as="geometry" />
        </mxCell>
        <mxCell id="MVcPuwvgO2qr8lrk7stS-61" value="&lt;font style=&quot;font-size: 16px;&quot;&gt;Address&lt;br style=&quot;font-size: 16px;&quot;&gt;Remap&lt;/font&gt;" style="endArrow=classic;html=1;exitX=1;exitY=0.5;exitDx=0;exitDy=0;entryX=0;entryY=0.5;entryDx=0;entryDy=0;fontFamily=Times New Roman;fontSize=16;" edge="1" parent="MVcPuwvgO2qr8lrk7stS-72" source="MVcPuwvgO2qr8lrk7stS-57" target="MVcPuwvgO2qr8lrk7stS-58">
          <mxGeometry width="50" height="50" relative="1" as="geometry">
            <mxPoint x="340" y="44" as="sourcePoint" />
            <mxPoint x="390" y="-6" as="targetPoint" />
            <Array as="points">
              <mxPoint x="210" y="144" />
            </Array>
          </mxGeometry>
        </mxCell>
        <mxCell id="MVcPuwvgO2qr8lrk7stS-68" value="&lt;font style=&quot;font-size: 16px;&quot;&gt;Jump&lt;/font&gt;" style="endArrow=classic;html=1;entryX=0;entryY=0.5;entryDx=0;entryDy=0;exitX=1;exitY=0.5;exitDx=0;exitDy=0;fontFamily=Times New Roman;fontSize=16;" edge="1" parent="MVcPuwvgO2qr8lrk7stS-72" target="MVcPuwvgO2qr8lrk7stS-67" source="MVcPuwvgO2qr8lrk7stS-58">
          <mxGeometry width="50" height="50" relative="1" as="geometry">
            <mxPoint x="390" y="144" as="sourcePoint" />
            <mxPoint x="380" y="-16" as="targetPoint" />
            <Array as="points">
              <mxPoint x="420" y="144" />
            </Array>
          </mxGeometry>
        </mxCell>
        <mxCell id="MVcPuwvgO2qr8lrk7stS-67" value="Handler&lt;br style=&quot;font-size: 16px;&quot;&gt;Function" style="rounded=1;whiteSpace=wrap;html=1;fillColor=#e1d5e7;strokeColor=#9673a6;fontSize=16;fontFamily=Times New Roman;" vertex="1" parent="MVcPuwvgO2qr8lrk7stS-72">
          <mxGeometry x="440" y="114" width="90" height="60" as="geometry" />
        </mxCell>
        <mxCell id="MVcPuwvgO2qr8lrk7stS-52" value="Hardware &lt;br style=&quot;font-size: 16px;&quot;&gt;Breakpoint" style="rounded=1;whiteSpace=wrap;html=1;fillColor=#d5e8d4;strokeColor=#82b366;fontSize=16;fontFamily=Times New Roman;" vertex="1" parent="MVcPuwvgO2qr8lrk7stS-72">
          <mxGeometry x="30" y="40" width="120" height="60" as="geometry" />
        </mxCell>
        <mxCell id="MVcPuwvgO2qr8lrk7stS-53" value="Exception Handler&lt;br style=&quot;font-size: 16px;&quot;&gt;（Debug Monitor）" style="rounded=1;whiteSpace=wrap;html=1;fillColor=#f5f5f5;strokeColor=#666666;fontColor=#333333;fontSize=16;fontFamily=Times New Roman;" vertex="1" parent="MVcPuwvgO2qr8lrk7stS-72">
          <mxGeometry x="245" y="40" width="135" height="60" as="geometry" />
        </mxCell>
        <mxCell id="MVcPuwvgO2qr8lrk7stS-54" value="&lt;font style=&quot;font-size: 16px;&quot;&gt;Gen &lt;br style=&quot;font-size: 16px;&quot;&gt;Exception&lt;/font&gt;" style="endArrow=classic;html=1;exitX=1;exitY=0.5;exitDx=0;exitDy=0;entryX=0;entryY=0.5;entryDx=0;entryDy=0;fontFamily=Times New Roman;fontSize=16;" edge="1" parent="MVcPuwvgO2qr8lrk7stS-72" source="MVcPuwvgO2qr8lrk7stS-52" target="MVcPuwvgO2qr8lrk7stS-53">
          <mxGeometry width="50" height="50" relative="1" as="geometry">
            <mxPoint x="340" y="70" as="sourcePoint" />
            <mxPoint x="390" y="20" as="targetPoint" />
          </mxGeometry>
        </mxCell>
        <mxCell id="MVcPuwvgO2qr8lrk7stS-73" value="Patch Handler" style="swimlane;rounded=1;shadow=0;glass=0;labelBackgroundColor=none;sketch=0;fillColor=#b1ddf0;fontFamily=Times New Roman;fontSize=16;strokeColor=#10739e;" vertex="1" parent="1">
          <mxGeometry x="640" y="280" width="180" height="270" as="geometry" />
        </mxCell>
        <mxCell id="MVcPuwvgO2qr8lrk7stS-77" value="Type I&lt;br style=&quot;font-size: 16px;&quot;&gt;Function-level Filter" style="rounded=1;whiteSpace=wrap;html=1;shadow=0;glass=0;labelBackgroundColor=none;sketch=0;fillColor=#b0e3e6;fontFamily=Times New Roman;fontSize=16;strokeColor=#0e8088;" vertex="1" parent="MVcPuwvgO2qr8lrk7stS-73">
          <mxGeometry x="30" y="40" width="120" height="60" as="geometry" />
        </mxCell>
        <mxCell id="MVcPuwvgO2qr8lrk7stS-78" value="Type II&lt;br style=&quot;font-size: 16px;&quot;&gt;Basic Block-level Filter" style="rounded=1;whiteSpace=wrap;html=1;shadow=0;glass=0;labelBackgroundColor=none;sketch=0;fillColor=#b0e3e6;fontFamily=Times New Roman;fontSize=16;strokeColor=#0e8088;" vertex="1" parent="MVcPuwvgO2qr8lrk7stS-73">
          <mxGeometry x="30" y="120" width="120" height="60" as="geometry" />
        </mxCell>
        <mxCell id="MVcPuwvgO2qr8lrk7stS-79" value="Type III&lt;br style=&quot;font-size: 16px;&quot;&gt;Function Replacement" style="rounded=1;whiteSpace=wrap;html=1;shadow=0;glass=0;labelBackgroundColor=none;sketch=0;fillColor=#b0e3e6;fontFamily=Times New Roman;fontSize=16;strokeColor=#0e8088;" vertex="1" parent="MVcPuwvgO2qr8lrk7stS-73">
          <mxGeometry x="30" y="200" width="120" height="60" as="geometry" />
        </mxCell>
        <mxCell id="MVcPuwvgO2qr8lrk7stS-74" value="eBPF VM" style="swimlane;rounded=1;shadow=0;glass=0;labelBackgroundColor=none;sketch=0;fillColor=#e1d5e7;fontFamily=Times New Roman;fontSize=16;arcSize=17;strokeColor=#9673a6;" vertex="1" parent="1">
          <mxGeometry x="900" y="280" width="160" height="270" as="geometry" />
        </mxCell>
        <mxCell id="MVcPuwvgO2qr8lrk7stS-75" value="Interpret Executation" style="rounded=1;whiteSpace=wrap;html=1;shadow=0;glass=0;labelBackgroundColor=none;sketch=0;fillColor=#d0cee2;fontFamily=Times New Roman;fontSize=16;strokeColor=#56517e;" vertex="1" parent="MVcPuwvgO2qr8lrk7stS-74">
          <mxGeometry x="20" y="70" width="120" height="60" as="geometry" />
        </mxCell>
        <mxCell id="MVcPuwvgO2qr8lrk7stS-76" value="JIT Executation" style="rounded=1;whiteSpace=wrap;html=1;shadow=0;glass=0;labelBackgroundColor=none;sketch=0;fillColor=#d0cee2;fontFamily=Times New Roman;fontSize=16;strokeColor=#56517e;" vertex="1" parent="MVcPuwvgO2qr8lrk7stS-74">
          <mxGeometry x="20" y="155" width="120" height="60" as="geometry" />
        </mxCell>
        <mxCell id="MVcPuwvgO2qr8lrk7stS-80" value="" style="shape=flexArrow;endArrow=classic;html=1;fontFamily=Times New Roman;fontSize=16;exitX=1;exitY=0.25;exitDx=0;exitDy=0;entryX=0;entryY=0.25;entryDx=0;entryDy=0;fillColor=#1ba1e2;strokeColor=#006EAF;" edge="1" parent="1" source="MVcPuwvgO2qr8lrk7stS-72" target="MVcPuwvgO2qr8lrk7stS-73">
          <mxGeometry width="50" height="50" relative="1" as="geometry">
            <mxPoint x="580" y="550" as="sourcePoint" />
            <mxPoint x="630" y="500" as="targetPoint" />
          </mxGeometry>
        </mxCell>
        <mxCell id="MVcPuwvgO2qr8lrk7stS-81" value="" style="shape=flexArrow;endArrow=classic;html=1;fontFamily=Times New Roman;fontSize=16;exitX=0;exitY=0.75;exitDx=0;exitDy=0;entryX=1;entryY=0.75;entryDx=0;entryDy=0;fillColor=#1ba1e2;strokeColor=#006EAF;" edge="1" parent="1" source="MVcPuwvgO2qr8lrk7stS-73" target="MVcPuwvgO2qr8lrk7stS-72">
          <mxGeometry width="50" height="50" relative="1" as="geometry">
            <mxPoint x="570.0000000000002" y="357.5" as="sourcePoint" />
            <mxPoint x="650" y="357.5" as="targetPoint" />
          </mxGeometry>
        </mxCell>
        <mxCell id="MVcPuwvgO2qr8lrk7stS-82" value="" style="shape=flexArrow;endArrow=classic;html=1;fontFamily=Times New Roman;fontSize=16;exitX=1;exitY=0.25;exitDx=0;exitDy=0;fillColor=#1ba1e2;strokeColor=#006EAF;" edge="1" parent="1" source="MVcPuwvgO2qr8lrk7stS-73">
          <mxGeometry width="50" height="50" relative="1" as="geometry">
            <mxPoint x="840.0000000000002" y="346.79" as="sourcePoint" />
            <mxPoint x="900" y="347" as="targetPoint" />
            <Array as="points">
              <mxPoint x="900" y="347" />
            </Array>
          </mxGeometry>
        </mxCell>
        <mxCell id="MVcPuwvgO2qr8lrk7stS-83" value="" style="shape=flexArrow;endArrow=classic;html=1;fontFamily=Times New Roman;fontSize=16;exitX=0;exitY=0.75;exitDx=0;exitDy=0;entryX=1;entryY=0.75;entryDx=0;entryDy=0;fillColor=#1ba1e2;strokeColor=#006EAF;" edge="1" parent="1" source="MVcPuwvgO2qr8lrk7stS-74" target="MVcPuwvgO2qr8lrk7stS-73">
          <mxGeometry width="50" height="50" relative="1" as="geometry">
            <mxPoint x="920" y="481.79" as="sourcePoint" />
            <mxPoint x="840.0000000000002" y="481.79" as="targetPoint" />
          </mxGeometry>
        </mxCell>
      </root>
    </mxGraphModel>
  </diagram>
</mxfile>
